<svg width="1200" height="900" xmlns="http://www.w3.org/2000/svg">
  <defs>
    <style>
      .title { font-family: Arial, sans-serif; font-size: 24px; font-weight: bold; fill: #2c3e50; }
      .subtitle { font-family: Arial, sans-serif; font-size: 16px; fill: #34495e; }
      .node-title { font-family: Arial, sans-serif; font-size: 14px; font-weight: bold; fill: #2c3e50; }
      .node-text { font-family: Arial, sans-serif; font-size: 12px; fill: #34495e; }
      .network-label { font-family: Arial, sans-serif; font-size: 14px; font-weight: bold; fill: #e74c3c; }
      .arrow { stroke: #3498db; stroke-width: 2; fill: none; marker-end: url(#arrowhead); }
      .data-flow { stroke: #e67e22; stroke-width: 2; fill: none; marker-end: url(#arrowhead); stroke-dasharray: 5,5; }
      .central-box { fill: #3498db; stroke: #2980b9; stroke-width: 2; rx: 10; }
      .agent-box { fill: #2ecc71; stroke: #27ae60; stroke-width: 2; rx: 8; }
      .executor-box { fill: #e74c3c; stroke: #c0392b; stroke-width: 2; rx: 8; }
      .web-box { fill: #9b59b6; stroke: #8e44ad; stroke-width: 2; rx: 8; }
      .database-box { fill: #f39c12; stroke: #e67e22; stroke-width: 2; rx: 8; }
      .network-box { fill: #ecf0f1; stroke: #bdc3c7; stroke-width: 2; rx: 5; stroke-dasharray: 3,3; }
    </style>
    <marker id="arrowhead" markerWidth="10" markerHeight="7" refX="9" refY="3.5" orient="auto">
      <polygon points="0 0, 10 3.5, 0 7" fill="#3498db" />
    </marker>
  </defs>
  
  <!-- 标题 -->
  <text x="600" y="30" text-anchor="middle" class="title">Fail2ban增强系统架构图</text>
  <text x="600" y="55" text-anchor="middle" class="subtitle">Enhanced Fail2ban System Architecture</text>
  
  <!-- 中央控制区域 -->
  <rect x="450" y="80" width="300" height="180" class="central-box" />
  <text x="600" y="105" text-anchor="middle" class="node-title" fill="white">中央控制节点 (Central Node)</text>
  
  <!-- 中央控制组件 -->
  <rect x="470" y="120" width="80" height="40" fill="#2980b9" rx="5" />
  <text x="510" y="135" text-anchor="middle" class="node-text" fill="white">API服务</text>
  <text x="510" y="150" text-anchor="middle" class="node-text" fill="white">5000端口</text>
  
  <rect x="560" y="120" width="80" height="40" fill="#2980b9" rx="5" />
  <text x="600" y="135" text-anchor="middle" class="node-text" fill="white">WebSocket</text>
  <text x="600" y="150" text-anchor="middle" class="node-text" fill="white">5001端口</text>
  
  <rect x="650" y="120" width="80" height="40" fill="#2980b9" rx="5" />
  <text x="690" y="135" text-anchor="middle" class="node-text" fill="white">攻击检测</text>
  <text x="690" y="150" text-anchor="middle" class="node-text" fill="white">分析引擎</text>
  
  <rect x="470" y="170" width="80" height="40" fill="#2980b9" rx="5" />
  <text x="510" y="185" text-anchor="middle" class="node-text" fill="white">封禁策略</text>
  <text x="510" y="200" text-anchor="middle" class="node-text" fill="white">管理器</text>
  
  <rect x="560" y="170" width="80" height="40" fill="#2980b9" rx="5" />
  <text x="600" y="185" text-anchor="middle" class="node-text" fill="white">节点协调</text>
  <text x="600" y="200" text-anchor="middle" class="node-text" fill="white">调度器</text>
  
  <rect x="650" y="170" width="80" height="40" fill="#2980b9" rx="5" />
  <text x="690" y="185" text-anchor="middle" class="node-text" fill="white">通知系统</text>
  <text x="690" y="200" text-anchor="middle" class="node-text" fill="white">告警中心</text>
  
  <!-- 增强功能层 -->
  <rect x="450" y="280" width="300" height="100" fill="#8e44ad" stroke="#7d3c98" stroke-width="2" rx="10" />
  <text x="600" y="305" text-anchor="middle" class="node-title" fill="white">增强功能层 (Enhanced Features)</text>
  
  <rect x="470" y="320" width="70" height="30" fill="#7d3c98" rx="3" />
  <text x="505" y="335" text-anchor="middle" class="node-text" fill="white">多租户</text>
  <text x="505" y="345" text-anchor="middle" class="node-text" fill="white">管理</text>
  
  <rect x="550" y="320" width="70" height="30" fill="#7d3c98" rx="3" />
  <text x="585" y="335" text-anchor="middle" class="node-text" fill="white">智能告警</text>
  <text x="585" y="345" text-anchor="middle" class="node-text" fill="white">系统</text>
  
  <rect x="630" y="320" width="70" height="30" fill="#7d3c98" rx="3" />
  <text x="665" y="335" text-anchor="middle" class="node-text" fill="white">性能监控</text>
  <text x="665" y="345" text-anchor="middle" class="node-text" fill="white">分析</text>
  
  <rect x="470" y="355" width="70" height="20" fill="#7d3c98" rx="3" />
  <text x="505" y="367" text-anchor="middle" class="node-text" fill="white">ML检测</text>
  
  <rect x="550" y="355" width="70" height="20" fill="#7d3c98" rx="3" />
  <text x="585" y="367" text-anchor="middle" class="node-text" fill="white">安全审计</text>
  
  <rect x="630" y="355" width="70" height="20" fill="#7d3c98" rx="3" />
  <text x="665" y="367" text-anchor="middle" class="node-text" fill="white">多数据源</text>
  
  <!-- 数据库区域 -->
  <rect x="800" y="80" width="120" height="80" class="database-box" />
  <text x="860" y="105" text-anchor="middle" class="node-title">数据存储</text>
  <rect x="810" y="115" width="45" height="35" fill="#e67e22" rx="3" />
  <text x="832" y="130" text-anchor="middle" class="node-text" fill="white">Redis</text>
  <text x="832" y="142" text-anchor="middle" class="node-text" fill="white">缓存</text>
  <rect x="865" y="115" width="45" height="35" fill="#e67e22" rx="3" />
  <text x="887" y="130" text-anchor="middle" class="node-text" fill="white">MongoDB</text>
  <text x="887" y="142" text-anchor="middle" class="node-text" fill="white">存储</text>
  
  <rect x="800" y="180" width="120" height="80" class="web-box" />
  <text x="860" y="205" text-anchor="middle" class="node-title" fill="white">Web管理界面</text>
  <rect x="810" y="215" width="100" height="35" fill="#8e44ad" rx="3" />
  <text x="860" y="230" text-anchor="middle" class="node-text" fill="white">实时监控面板</text>
  <text x="860" y="242" text-anchor="middle" class="node-text" fill="white">8080端口</text>
  
  <!-- 三网环境 -->
  <rect x="50" y="400" width="350" height="220" class="network-box" />
  <text x="225" y="425" text-anchor="middle" class="network-label">三网环境 (Three-Network Environment)</text>
  
  <!-- 电信网络 -->
  <rect x="70" y="440" width="90" height="150" fill="#ecf0f1" stroke="#95a5a6" stroke-width="1" rx="5" />
  <text x="115" y="460" text-anchor="middle" class="node-text">电信网络</text>
  
  <rect x="80" y="470" width="70" height="30" class="agent-box" />
  <text x="115" y="485" text-anchor="middle" class="node-text" fill="white">代理节点</text>
  <text x="115" y="495" text-anchor="middle" class="node-text" fill="white">Agent-1</text>
  
  <rect x="80" y="510" width="70" height="30" class="executor-box" />
  <text x="115" y="525" text-anchor="middle" class="node-text" fill="white">执行节点</text>
  <text x="115" y="535" text-anchor="middle" class="node-text" fill="white">Executor-1</text>
  
  <rect x="80" y="550" width="70" height="30" fill="#34495e" rx="3" />
  <text x="115" y="565" text-anchor="middle" class="node-text" fill="white">Nginx服务器</text>
  <text x="115" y="575" text-anchor="middle" class="node-text" fill="white">Web Server</text>
  
  <!-- 联通网络 -->
  <rect x="180" y="440" width="90" height="150" fill="#ecf0f1" stroke="#95a5a6" stroke-width="1" rx="5" />
  <text x="225" y="460" text-anchor="middle" class="node-text">联通网络</text>
  
  <rect x="190" y="470" width="70" height="30" class="agent-box" />
  <text x="225" y="485" text-anchor="middle" class="node-text" fill="white">代理节点</text>
  <text x="225" y="495" text-anchor="middle" class="node-text" fill="white">Agent-2</text>
  
  <rect x="190" y="510" width="70" height="30" class="executor-box" />
  <text x="225" y="525" text-anchor="middle" class="node-text" fill="white">执行节点</text>
  <text x="225" y="535" text-anchor="middle" class="node-text" fill="white">Executor-2</text>
  
  <rect x="190" y="550" width="70" height="30" fill="#34495e" rx="3" />
  <text x="225" y="565" text-anchor="middle" class="node-text" fill="white">Nginx服务器</text>
  <text x="225" y="575" text-anchor="middle" class="node-text" fill="white">Web Server</text>
  
  <!-- 移动网络 -->
  <rect x="290" y="440" width="90" height="150" fill="#ecf0f1" stroke="#95a5a6" stroke-width="1" rx="5" />
  <text x="335" y="460" text-anchor="middle" class="node-text">移动网络</text>
  
  <rect x="300" y="470" width="70" height="30" class="agent-box" />
  <text x="335" y="485" text-anchor="middle" class="node-text" fill="white">代理节点</text>
  <text x="335" y="495" text-anchor="middle" class="node-text" fill="white">Agent-3</text>
  
  <rect x="300" y="510" width="70" height="30" class="executor-box" />
  <text x="335" y="525" text-anchor="middle" class="node-text" fill="white">执行节点</text>
  <text x="335" y="535" text-anchor="middle" class="node-text" fill="white">Executor-3</text>
  
  <rect x="300" y="550" width="70" height="30" fill="#34495e" rx="3" />
  <text x="335" y="565" text-anchor="middle" class="node-text" fill="white">Nginx服务器</text>
  <text x="335" y="575" text-anchor="middle" class="node-text" fill="white">Web Server</text>
  
  <!-- 海外环境 -->
  <rect x="800" y="400" width="350" height="220" class="network-box" />
  <text x="975" y="425" text-anchor="middle" class="network-label">海外环境 (Overseas Environment)</text>
  
  <!-- 美国服务器 -->
  <rect x="820" y="440" width="90" height="150" fill="#ecf0f1" stroke="#95a5a6" stroke-width="1" rx="5" />
  <text x="865" y="460" text-anchor="middle" class="node-text">美国服务器</text>
  
  <rect x="830" y="470" width="70" height="30" class="agent-box" />
  <text x="865" y="485" text-anchor="middle" class="node-text" fill="white">代理节点</text>
  <text x="865" y="495" text-anchor="middle" class="node-text" fill="white">Agent-US</text>
  
  <rect x="830" y="510" width="70" height="30" class="executor-box" />
  <text x="865" y="525" text-anchor="middle" class="node-text" fill="white">执行节点</text>
  <text x="865" y="535" text-anchor="middle" class="node-text" fill="white">Executor-US</text>
  
  <rect x="830" y="550" width="70" height="30" fill="#34495e" rx="3" />
  <text x="865" y="565" text-anchor="middle" class="node-text" fill="white">Nginx服务器</text>
  <text x="865" y="575" text-anchor="middle" class="node-text" fill="white">Web Server</text>
  
  <!-- 欧洲服务器 -->
  <rect x="930" y="440" width="90" height="150" fill="#ecf0f1" stroke="#95a5a6" stroke-width="1" rx="5" />
  <text x="975" y="460" text-anchor="middle" class="node-text">欧洲服务器</text>
  
  <rect x="940" y="470" width="70" height="30" class="agent-box" />
  <text x="975" y="485" text-anchor="middle" class="node-text" fill="white">代理节点</text>
  <text x="975" y="495" text-anchor="middle" class="node-text" fill="white">Agent-EU</text>
  
  <rect x="940" y="510" width="70" height="30" class="executor-box" />
  <text x="975" y="525" text-anchor="middle" class="node-text" fill="white">执行节点</text>
  <text x="975" y="535" text-anchor="middle" class="node-text" fill="white">Executor-EU</text>
  
  <rect x="940" y="550" width="70" height="30" fill="#34495e" rx="3" />
  <text x="975" y="565" text-anchor="middle" class="node-text" fill="white">Nginx服务器</text>
  <text x="975" y="575" text-anchor="middle" class="node-text" fill="white">Web Server</text>
  
  <!-- 亚太服务器 -->
  <rect x="1040" y="440" width="90" height="150" fill="#ecf0f1" stroke="#95a5a6" stroke-width="1" rx="5" />
  <text x="1085" y="460" text-anchor="middle" class="node-text">亚太服务器</text>
  
  <rect x="1050" y="470" width="70" height="30" class="agent-box" />
  <text x="1085" y="485" text-anchor="middle" class="node-text" fill="white">代理节点</text>
  <text x="1085" y="495" text-anchor="middle" class="node-text" fill="white">Agent-AP</text>
  
  <rect x="1050" y="510" width="70" height="30" class="executor-box" />
  <text x="1085" y="525" text-anchor="middle" class="node-text" fill="white">执行节点</text>
  <text x="1085" y="535" text-anchor="middle" class="node-text" fill="white">Executor-AP</text>
  
  <rect x="1050" y="550" width="70" height="30" fill="#34495e" rx="3" />
  <text x="1085" y="565" text-anchor="middle" class="node-text" fill="white">Nginx服务器</text>
  <text x="1085" y="575" text-anchor="middle" class="node-text" fill="white">Web Server</text>
  
  <!-- 数据流向箭头 -->
  <!-- 代理节点到中央控制 -->
  <path d="M 150 485 Q 300 380 450 170" class="data-flow" />
  <path d="M 260 485 Q 350 380 450 170" class="data-flow" />
  <path d="M 370 485 Q 400 380 450 170" class="data-flow" />
  <path d="M 900 485 Q 700 380 750 170" class="data-flow" />
  <path d="M 1010 485 Q 800 380 750 170" class="data-flow" />
  <path d="M 1120 485 Q 900 380 750 170" class="data-flow" />
  
  <!-- 增强功能层连接 -->
  <path d="M 600 260 L 600 280" class="arrow" />
  
  <!-- 中央控制到执行节点 -->
  <path d="M 450 200 Q 300 380 150 525" class="arrow" />
  <path d="M 450 200 Q 350 380 260 525" class="arrow" />
  <path d="M 450 200 Q 400 380 370 525" class="arrow" />
  <path d="M 750 200 Q 700 380 900 525" class="arrow" />
  <path d="M 750 200 Q 800 380 1010 525" class="arrow" />
  <path d="M 750 200 Q 900 380 1120 525" class="arrow" />
  
  <!-- 中央控制到数据库 -->
  <path d="M 750 120 L 800 120" class="arrow" />
  
  <!-- 中央控制到Web界面 -->
  <path d="M 750 220 L 800 220" class="arrow" />
  
  <!-- 数据流说明 -->
  <rect x="450" y="650" width="300" height="220" fill="#f8f9fa" stroke="#dee2e6" stroke-width="1" rx="5" />
  <text x="600" y="675" text-anchor="middle" class="node-title">数据流向说明</text>
  
  <line x1="470" y1="690" x2="490" y2="690" class="data-flow" />
  <text x="500" y="695" class="node-text">日志数据流 (代理节点 → 中央控制)</text>
  
  <line x1="470" y1="710" x2="490" y2="710" class="arrow" />
  <text x="500" y="715" class="node-text">控制指令流 (中央控制 → 执行节点)</text>
  
  <text x="470" y="735" class="node-text">• 代理节点实时监控Nginx日志</text>
  <text x="470" y="750" class="node-text">• 解析日志并发送到中央控制节点</text>
  <text x="470" y="765" class="node-text">• 增强功能层提供智能分析和多租户管理</text>
  <text x="470" y="780" class="node-text">• 中央节点分析攻击模式和风险</text>
  <text x="470" y="795" class="node-text">• 生成封禁指令发送到执行节点</text>
  <text x="470" y="810" class="node-text">• 执行节点调用Fail2ban执行封禁</text>
  <text x="470" y="825" class="node-text">• Web界面提供实时监控和管理</text>
  <text x="470" y="840" class="node-text">• 支持手动封禁和白名单管理</text>
  <text x="470" y="855" class="node-text">• ML检测引擎提供智能威胁识别</text>
  
  <!-- 图例 -->
  <rect x="50" y="650" width="350" height="220" fill="#f8f9fa" stroke="#dee2e6" stroke-width="1" rx="5" />
  <text x="225" y="675" text-anchor="middle" class="node-title">组件图例</text>
  
  <rect x="70" y="690" width="60" height="25" class="central-box" />
  <text x="140" y="705" class="node-text">中央控制节点</text>
  
  <rect x="70" y="720" width="60" height="25" fill="#8e44ad" rx="3" />
  <text x="140" y="735" class="node-text">增强功能层</text>
  
  <rect x="70" y="750" width="60" height="25" class="agent-box" />
  <text x="140" y="765" class="node-text">日志收集代理</text>
  
  <rect x="70" y="780" width="60" height="25" class="executor-box" />
  <text x="140" y="795" class="node-text">封禁执行节点</text>
  
  <rect x="70" y="810" width="60" height="25" class="web-box" />
  <text x="140" y="825" class="node-text">Web管理界面</text>
  
  <rect x="70" y="840" width="60" height="25" class="database-box" />
  <text x="140" y="855" class="node-text">数据存储</text>
  
  <rect x="220" y="690" width="60" height="25" fill="#34495e" rx="3" />
  <text x="290" y="705" class="node-text">Nginx Web服务器</text>
  
  <rect x="220" y="720" width="150" height="25" class="network-box" />
  <text x="295" y="735" class="node-text">网络环境边界</text>
  
  <text x="220" y="760" class="node-text">增强功能包括:</text>
  <text x="220" y="775" class="node-text">• 多租户管理</text>
  <text x="220" y="790" class="node-text">• 智能告警系统</text>
  <text x="220" y="805" class="node-text">• 性能监控分析</text>
  <text x="220" y="820" class="node-text">• ML威胁检测</text>
  <text x="220" y="835" class="node-text">• 安全审计</text>
  <text x="220" y="850" class="node-text">• 多数据源支持</text>
  
  <!-- 版权信息 -->
  <text x="600" y="890" text-anchor="middle" class="node-text">Fail2ban增强系统 v2.0 - 支持多网络环境的智能入侵防护系统</text>
</svg>